<?xml version="1.0" encoding="UTF-8"?>
<svg version="1.1" viewBox="0 0 1024 1024" width="1024" height="1024" xmlns="http://www.w3.org/2000/svg">
<path transform="translate(0)" d="m0 0h1024v1024h-1024z" fill="#fefefe"/>
<path transform="translate(576,151)" d="m0 0h18l18 2 21 5 16 6 16 8 14 9 14 11 15 15 11 14 10 16 8 16 5 14 4 18 1 8v27l-4 17-8 17-9 15-2 5v7l4 13 4 16v14l-4 17-7 14-8 10-13 13-13 8-12 6-15 4-6 1h-23l-18-4-16-6-25-12-25-14 6 24 12 36 10 25 11 23 10 16 36 12 52 17 10 3 5-1 8-6 11-5 4-1h17l17-26 2-5-9-12-7-14-4-15-1-6v-22l4-20 6-17 8-15 9-12 11-12 8-7 14-10 16-8 15-5 11-2h23l16 3 13 5 14 9 10 9 7 9 8 14 5 13 2 9 1 9v14l-3 18-5 15-8 16-9 13-12 14-10 9-13 9-16 8-15 5-19 3h-9l-16-2-11-2-15 22-3 5 2 5 4 8 1 5v15l-6 12-10 8h-3l-1 5-6 8-7 6-8 3-14 1-9 13-14 18-9 11-9 6-2 1h-12l-8-4-9-9-3-6v-9l6-11 12-16 10-12-9-4-14-4-45-9-64-13-12-7-10-10-11-18-10-21-13-30-14-33-11-26-4-3h-8l-3 1-1 4v8l8 21 16 38 15 35 8 16 8 14 8 10 11 11 12 8 12 64 11 61 29 2 20 4 12 5 8 6 8 8 6 9 2 6v7l-5 8-4 2h-111l-8-7-3-7-11-33-11-30-12-34-6-19 1-9 6-19 3-16v-29l-4-17-7-16-9-12-10-9-14-8-10-4-13-3h-30l-20 4-18 7-17 9-19 14-7 7-1 6 3 6 2 1h9l16-12 13-8 16-8 18-5 15-2h12l17 4 15 8 11 10 6 9 4 11 3 16v11l-3 19-5 16-8 18-11 19-10 14-13 18-10 13-11 13-2 2 44 1 21 2 11 4 10 7 6 5 7 10 3 7v6l-4 6-10 5-162 1-10-2-8-7-4-8v-12l8-24 2-5h-13l-15-3-13-5-11-6-9-7-27-1-17-3-21-7-16-8-12-8-11-9-9-9-13-18-8-16-6-15-5-18-3-19v-32l3-19 5-21 8-22 7-16 14-28 9-17 4-12 1-5v-11l-4-13-6-8-12-12-7-8-8-10-8-13-6-13-5-15-4-19-1-8v-26l3-19 4-15 8-18 6-11 9-12 9-10 5-5h2v-2l18-12 17-8 17-5 13-2h23l17 3 21 7 11 6 12 9 6 5v2h2l11 14 8 14 5 15 2 11 1 14-2 17-5 17-8 15-11 12-10 9-14 8-16 5-7 1h-15l-17-4-14-7-10-9-6-7-6-13-2-8-1-12 2-15 4-10 4-6 8-7 8-3 10 1 8 5 4 5 3 9-1 9-5 8v10l2 5 4 2 8 3h10l11-4 5-4h2l2-4 6-9 3-11v-16l-4-14-8-12-10-9-11-6-11-4-11-2h-12l-17 3-13 5-11 7-10 9-7 9-8 15-4 13-2 12v25l4 18 5 13 8 15 12 14 12 12 9 12 6 13 4 15 1 7v16l-4 18-6 15-12 21-11 23-11 26-5 19-2 14v31l3 16 7 20 9 15 9 10 10 8 16 8 15 5-6-18-5-24-2-17v-32l2-21 5-30 6-24 12-36 11-25 11-20 12-19 10-13 8-10 18-20 11-11 8-7 11-10 16-12 13-9 13-8 23-12 17-7 24-7 9-1-3-21v-23l3-19 5-17 8-18 7-12 10-14 13-14 11-9 14-10 15-8 21-8 25-5z"/>
<path transform="translate(651,271)" d="m0 0h21l16 5 10 6 11 9 9 12 5 14v12l-4 11-10 18-4 9-1 4v15l7 22 1 12-4 16-6 11-9 10-2 2-5-1-13-8-5-1-5 1-1 6 2 5 9 6 2 2-12 5-10 2h-15l-9-2-10-5-6-4-7-9-4-8-3-13 1-15 4-13 5-10 9-12-4-7-7-12-5-16-1-6v-17l4-17 6-12 7-9 7-7 12-7z" fill="#fefefe"/>
<path transform="translate(847,426)" d="m0 0h11l14 3 12 6 10 9 6 9 5 12 2 10v15l-4 18-9 19-7 9-9 10-8 7-11 7-15 6-9 2h-22l-12-3-12-6-10-9-8-14-3-12v-19l4-18 7-16 10-14 12-12 14-9 13-6 11-3z" fill="#FEFEFE"/>
<path transform="translate(528,231)" d="m0 0h9l11 3 10 6 9 9 5 9 4 13v6l-10 14-9 15-10 19-5 10-4 3-3 1h-8l-12-3-10-6-8-7-7-11-4-14v-17l4-16 6-12 9-10 7-6 8-4z" fill="#FEFEFE"/>
<path transform="translate(668,332)" d="m0 0h10l8 4 5 6 2 5v8l-3 7-7 6-6 2-10-1-6-4-4-6-1-3v-12l5-8z"/>
</svg>
